<mxfile host="Electron" agent="Mozilla/5.0 (Windows NT 10.0; Win64; x64) AppleWebKit/537.36 (KHTML, like Gecko) draw.io/27.0.9 Chrome/134.0.6998.205 Electron/35.4.0 Safari/537.36" version="27.0.9">
  <diagram name="Page-1" id="QsZ5dNJ6yKMbEyMru52F">
    <mxGraphModel dx="1256" dy="720" grid="1" gridSize="10" guides="1" tooltips="1" connect="1" arrows="1" fold="1" page="1" pageScale="1" pageWidth="827" pageHeight="1169" math="0" shadow="0">
      <root>
        <mxCell id="0" />
        <mxCell id="1" parent="0" />
        <mxCell id="X1wTtv5NDjoywUPzEH5h-1" value="Researcher" style="html=1;outlineConnect=0;whiteSpace=wrap;fillColor=#ffff99;verticalLabelPosition=bottom;verticalAlign=top;align=center;shape=mxgraph.archimate3.actor;" parent="1" vertex="1">
          <mxGeometry x="50" y="40" width="26.5" height="50" as="geometry" />
        </mxCell>
        <mxCell id="X1wTtv5NDjoywUPzEH5h-2" value="Project Member" style="html=1;outlineConnect=0;whiteSpace=wrap;fillColor=#ffff99;shape=mxgraph.archimate3.role;fontColor=#000000;" parent="1" vertex="1">
          <mxGeometry x="160" y="120" width="70" height="35" as="geometry" />
        </mxCell>
        <mxCell id="X1wTtv5NDjoywUPzEH5h-3" value="Catalogue Searcher" style="html=1;outlineConnect=0;whiteSpace=wrap;fillColor=#ffff99;shape=mxgraph.archimate3.role;fontColor=#000000;fillStyle=auto;" parent="1" vertex="1">
          <mxGeometry x="160" y="20" width="70" height="35" as="geometry" />
        </mxCell>
        <mxCell id="X1wTtv5NDjoywUPzEH5h-4" value="Principal Investigator" style="html=1;outlineConnect=0;whiteSpace=wrap;fillColor=#ffff99;shape=mxgraph.archimate3.role;fontColor=#000000;" parent="1" vertex="1">
          <mxGeometry x="360" y="220" width="70" height="35" as="geometry" />
        </mxCell>
        <mxCell id="X1wTtv5NDjoywUPzEH5h-5" value="Job Submitter" style="html=1;outlineConnect=0;whiteSpace=wrap;fillColor=#ffff99;shape=mxgraph.archimate3.role;fontColor=#000000;" parent="1" vertex="1">
          <mxGeometry x="360" y="40" width="70" height="35" as="geometry" />
        </mxCell>
        <mxCell id="X1wTtv5NDjoywUPzEH5h-6" value="Experimenter&amp;nbsp; Investigator" style="html=1;outlineConnect=0;whiteSpace=wrap;fillColor=#ffff99;shape=mxgraph.archimate3.role;fontColor=#FF3333;" parent="1" vertex="1">
          <mxGeometry x="360" y="100" width="70" height="35" as="geometry" />
        </mxCell>
        <mxCell id="X1wTtv5NDjoywUPzEH5h-7" value="Information Governance" style="html=1;outlineConnect=0;whiteSpace=wrap;fillColor=#ffff99;verticalLabelPosition=bottom;verticalAlign=top;align=center;shape=mxgraph.archimate3.actor;" parent="1" vertex="1">
          <mxGeometry x="50" y="490" width="26.5" height="50" as="geometry" />
        </mxCell>
        <mxCell id="X1wTtv5NDjoywUPzEH5h-8" value="Output Approver" style="html=1;outlineConnect=0;whiteSpace=wrap;fillColor=#ffff99;shape=mxgraph.archimate3.role;fontColor=#000000;" parent="1" vertex="1">
          <mxGeometry x="460" y="470" width="70" height="35" as="geometry" />
        </mxCell>
        <mxCell id="X1wTtv5NDjoywUPzEH5h-9" value="Data Manager" style="html=1;outlineConnect=0;whiteSpace=wrap;fillColor=#ffff99;shape=mxgraph.archimate3.role;fontColor=#000000;" parent="1" vertex="1">
          <mxGeometry x="460" y="420" width="70" height="35" as="geometry" />
        </mxCell>
        <mxCell id="X1wTtv5NDjoywUPzEH5h-12" value="Job Approver" style="html=1;outlineConnect=0;whiteSpace=wrap;fillColor=#ffff99;shape=mxgraph.archimate3.role;fontColor=#000000;" parent="1" vertex="1">
          <mxGeometry x="460" y="520" width="70" height="35" as="geometry" />
        </mxCell>
        <mxCell id="X1wTtv5NDjoywUPzEH5h-13" value="Data Controller" style="html=1;outlineConnect=0;whiteSpace=wrap;fillColor=#ffff99;verticalLabelPosition=bottom;verticalAlign=top;align=center;shape=mxgraph.archimate3.actor;" parent="1" vertex="1">
          <mxGeometry x="50" y="715" width="26.5" height="50" as="geometry" />
        </mxCell>
        <mxCell id="X1wTtv5NDjoywUPzEH5h-16" value="Data Custodian" style="html=1;outlineConnect=0;whiteSpace=wrap;fillColor=#ffff99;shape=mxgraph.archimate3.role;" parent="1" vertex="1">
          <mxGeometry x="160" y="750" width="70" height="35" as="geometry" />
        </mxCell>
        <mxCell id="X1wTtv5NDjoywUPzEH5h-17" value="TRE Operator" style="html=1;outlineConnect=0;whiteSpace=wrap;fillColor=#ffff99;verticalLabelPosition=bottom;verticalAlign=top;align=center;shape=mxgraph.archimate3.actor;" parent="1" vertex="1">
          <mxGeometry x="50" y="310" width="26.5" height="50" as="geometry" />
        </mxCell>
        <mxCell id="X1wTtv5NDjoywUPzEH5h-18" value="TRE Operator" style="html=1;outlineConnect=0;whiteSpace=wrap;fillColor=#ffff99;shape=mxgraph.archimate3.role;fontColor=#000000;" parent="1" vertex="1">
          <mxGeometry x="160" y="275" width="70" height="35" as="geometry" />
        </mxCell>
        <mxCell id="X1wTtv5NDjoywUPzEH5h-19" value="Public" style="html=1;outlineConnect=0;whiteSpace=wrap;fillColor=#ffff99;verticalLabelPosition=bottom;verticalAlign=top;align=center;shape=mxgraph.archimate3.actor;" parent="1" vertex="1">
          <mxGeometry x="50" y="835" width="26.5" height="50" as="geometry" />
        </mxCell>
        <mxCell id="X1wTtv5NDjoywUPzEH5h-20" value="Data Provider" style="html=1;outlineConnect=0;whiteSpace=wrap;fillColor=#ffff99;shape=mxgraph.archimate3.role;" parent="1" vertex="1">
          <mxGeometry x="160" y="840.5" width="70" height="35" as="geometry" />
        </mxCell>
        <mxCell id="X1wTtv5NDjoywUPzEH5h-21" value="Data Loader" style="html=1;outlineConnect=0;whiteSpace=wrap;fillColor=#ffff99;shape=mxgraph.archimate3.role;fontColor=#FF3333;" parent="1" vertex="1">
          <mxGeometry x="620" y="370" width="70" height="35" as="geometry" />
        </mxCell>
        <mxCell id="X1wTtv5NDjoywUPzEH5h-22" value="Data Processor" style="html=1;outlineConnect=0;whiteSpace=wrap;fillColor=#ffff99;shape=mxgraph.archimate3.role;fontColor=#FF3333;" parent="1" vertex="1">
          <mxGeometry x="620" y="420" width="70" height="35" as="geometry" />
        </mxCell>
        <mxCell id="X1wTtv5NDjoywUPzEH5h-23" value="Data Sharer" style="html=1;outlineConnect=0;whiteSpace=wrap;fillColor=#ffff99;shape=mxgraph.archimate3.role;fontColor=#FF3333;" parent="1" vertex="1">
          <mxGeometry x="620" y="470" width="70" height="35" as="geometry" />
        </mxCell>
        <mxCell id="X1wTtv5NDjoywUPzEH5h-24" value="Data Curator" style="html=1;outlineConnect=0;whiteSpace=wrap;fillColor=#ffff99;shape=mxgraph.archimate3.role;fontColor=#FF3333;" parent="1" vertex="1">
          <mxGeometry x="360" y="160" width="70" height="35" as="geometry" />
        </mxCell>
        <mxCell id="X1wTtv5NDjoywUPzEH5h-25" value="" style="endArrow=block;html=1;endFill=1;startArrow=oval;startFill=1;elbow=vertical;rounded=0;entryX=0;entryY=0.5;entryDx=0;entryDy=0;entryPerimeter=0;exitX=1;exitY=0.45;exitDx=0;exitDy=0;exitPerimeter=0;" parent="1" source="X1wTtv5NDjoywUPzEH5h-1" target="X1wTtv5NDjoywUPzEH5h-3" edge="1">
          <mxGeometry width="160" relative="1" as="geometry">
            <mxPoint x="360" y="30" as="sourcePoint" />
            <mxPoint x="520" y="30" as="targetPoint" />
          </mxGeometry>
        </mxCell>
        <mxCell id="X1wTtv5NDjoywUPzEH5h-26" value="" style="endArrow=block;html=1;endFill=1;startArrow=oval;startFill=1;elbow=vertical;rounded=0;entryX=0;entryY=0.5;entryDx=0;entryDy=0;entryPerimeter=0;exitX=1;exitY=0.45;exitDx=0;exitDy=0;exitPerimeter=0;" parent="1" source="X1wTtv5NDjoywUPzEH5h-1" target="X1wTtv5NDjoywUPzEH5h-2" edge="1">
          <mxGeometry width="160" relative="1" as="geometry">
            <mxPoint x="160" y="130" as="sourcePoint" />
            <mxPoint x="363" y="130" as="targetPoint" />
          </mxGeometry>
        </mxCell>
        <mxCell id="X1wTtv5NDjoywUPzEH5h-31" value="" style="endArrow=block;html=1;endFill=1;startArrow=oval;startFill=1;elbow=vertical;rounded=0;entryX=0;entryY=0.5;entryDx=0;entryDy=0;entryPerimeter=0;exitX=1;exitY=0.45;exitDx=0;exitDy=0;exitPerimeter=0;" parent="1" source="X1wTtv5NDjoywUPzEH5h-7" target="X1wTtv5NDjoywUPzEH5h-12" edge="1">
          <mxGeometry width="160" relative="1" as="geometry">
            <mxPoint x="190" y="380" as="sourcePoint" />
            <mxPoint x="393" y="380" as="targetPoint" />
          </mxGeometry>
        </mxCell>
        <mxCell id="X1wTtv5NDjoywUPzEH5h-33" value="" style="endArrow=block;html=1;endFill=1;startArrow=oval;startFill=1;elbow=vertical;rounded=0;entryX=0;entryY=0.5;entryDx=0;entryDy=0;entryPerimeter=0;exitX=1;exitY=0.45;exitDx=0;exitDy=0;exitPerimeter=0;" parent="1" source="X1wTtv5NDjoywUPzEH5h-7" target="X1wTtv5NDjoywUPzEH5h-9" edge="1">
          <mxGeometry width="160" relative="1" as="geometry">
            <mxPoint x="220" y="520" as="sourcePoint" />
            <mxPoint x="423" y="520" as="targetPoint" />
          </mxGeometry>
        </mxCell>
        <mxCell id="X1wTtv5NDjoywUPzEH5h-34" value="" style="endArrow=block;html=1;endFill=1;startArrow=oval;startFill=1;elbow=vertical;rounded=0;entryX=0;entryY=0.5;entryDx=0;entryDy=0;entryPerimeter=0;exitX=1;exitY=0.45;exitDx=0;exitDy=0;exitPerimeter=0;" parent="1" source="X1wTtv5NDjoywUPzEH5h-7" target="X1wTtv5NDjoywUPzEH5h-8" edge="1">
          <mxGeometry width="160" relative="1" as="geometry">
            <mxPoint x="220" y="520" as="sourcePoint" />
            <mxPoint x="423" y="520" as="targetPoint" />
          </mxGeometry>
        </mxCell>
        <mxCell id="X1wTtv5NDjoywUPzEH5h-36" value="" style="endArrow=block;html=1;endFill=1;startArrow=oval;startFill=1;elbow=vertical;rounded=0;entryX=0;entryY=0.5;entryDx=0;entryDy=0;entryPerimeter=0;exitX=1;exitY=0.45;exitDx=0;exitDy=0;exitPerimeter=0;" parent="1" source="X1wTtv5NDjoywUPzEH5h-17" target="X1wTtv5NDjoywUPzEH5h-18" edge="1">
          <mxGeometry width="160" relative="1" as="geometry">
            <mxPoint x="190" y="245" as="sourcePoint" />
            <mxPoint x="393" y="245" as="targetPoint" />
          </mxGeometry>
        </mxCell>
        <mxCell id="X1wTtv5NDjoywUPzEH5h-37" value="" style="endArrow=block;html=1;endFill=1;startArrow=oval;startFill=1;elbow=vertical;rounded=0;entryX=0;entryY=0.5;entryDx=0;entryDy=0;entryPerimeter=0;exitX=1;exitY=0.45;exitDx=0;exitDy=0;exitPerimeter=0;" parent="1" source="X1wTtv5NDjoywUPzEH5h-13" target="X1wTtv5NDjoywUPzEH5h-16" edge="1">
          <mxGeometry width="160" relative="1" as="geometry">
            <mxPoint x="210" y="660" as="sourcePoint" />
            <mxPoint x="413" y="662" as="targetPoint" />
          </mxGeometry>
        </mxCell>
        <mxCell id="X1wTtv5NDjoywUPzEH5h-38" value="" style="endArrow=block;html=1;endFill=1;startArrow=oval;startFill=1;elbow=vertical;rounded=0;entryX=0;entryY=0.5;entryDx=0;entryDy=0;entryPerimeter=0;exitX=1;exitY=0.45;exitDx=0;exitDy=0;exitPerimeter=0;" parent="1" source="X1wTtv5NDjoywUPzEH5h-19" target="X1wTtv5NDjoywUPzEH5h-20" edge="1">
          <mxGeometry width="160" relative="1" as="geometry">
            <mxPoint x="210" y="790" as="sourcePoint" />
            <mxPoint x="413" y="792" as="targetPoint" />
          </mxGeometry>
        </mxCell>
        <mxCell id="X1wTtv5NDjoywUPzEH5h-45" value="" style="endArrow=block;html=1;endFill=0;elbow=vertical;rounded=0;exitX=1;exitY=0.5;exitDx=0;exitDy=0;exitPerimeter=0;entryX=0;entryY=0.5;entryDx=0;entryDy=0;entryPerimeter=0;fontColor=#000000;" parent="1" source="X1wTtv5NDjoywUPzEH5h-2" target="X1wTtv5NDjoywUPzEH5h-5" edge="1">
          <mxGeometry width="160" relative="1" as="geometry">
            <mxPoint x="470" y="334.5" as="sourcePoint" />
            <mxPoint x="630" y="334.5" as="targetPoint" />
          </mxGeometry>
        </mxCell>
        <mxCell id="X1wTtv5NDjoywUPzEH5h-46" value="" style="endArrow=block;html=1;endFill=0;elbow=vertical;rounded=0;exitX=1;exitY=0.5;exitDx=0;exitDy=0;exitPerimeter=0;entryX=0;entryY=0.5;entryDx=0;entryDy=0;entryPerimeter=0;fontColor=#000000;" parent="1" source="X1wTtv5NDjoywUPzEH5h-2" target="X1wTtv5NDjoywUPzEH5h-6" edge="1">
          <mxGeometry width="160" relative="1" as="geometry">
            <mxPoint x="530" y="170" as="sourcePoint" />
            <mxPoint x="660" y="90" as="targetPoint" />
          </mxGeometry>
        </mxCell>
        <mxCell id="X1wTtv5NDjoywUPzEH5h-47" value="" style="endArrow=block;html=1;endFill=0;elbow=vertical;rounded=0;exitX=1;exitY=0.5;exitDx=0;exitDy=0;exitPerimeter=0;entryX=0;entryY=0.5;entryDx=0;entryDy=0;entryPerimeter=0;fontColor=#000000;" parent="1" source="X1wTtv5NDjoywUPzEH5h-2" target="X1wTtv5NDjoywUPzEH5h-24" edge="1">
          <mxGeometry width="160" relative="1" as="geometry">
            <mxPoint x="280" y="270" as="sourcePoint" />
            <mxPoint x="410" y="190" as="targetPoint" />
          </mxGeometry>
        </mxCell>
        <mxCell id="X1wTtv5NDjoywUPzEH5h-48" value="" style="endArrow=block;html=1;endFill=0;elbow=vertical;rounded=0;exitX=1;exitY=0.5;exitDx=0;exitDy=0;exitPerimeter=0;entryX=0;entryY=0.5;entryDx=0;entryDy=0;entryPerimeter=0;fontColor=#000000;" parent="1" source="X1wTtv5NDjoywUPzEH5h-2" target="X1wTtv5NDjoywUPzEH5h-4" edge="1">
          <mxGeometry width="160" relative="1" as="geometry">
            <mxPoint x="240" y="310" as="sourcePoint" />
            <mxPoint x="370" y="230" as="targetPoint" />
          </mxGeometry>
        </mxCell>
        <mxCell id="X1wTtv5NDjoywUPzEH5h-49" value="" style="endArrow=block;html=1;endFill=0;elbow=vertical;rounded=0;exitX=1;exitY=0.5;exitDx=0;exitDy=0;exitPerimeter=0;entryX=0;entryY=0.5;entryDx=0;entryDy=0;entryPerimeter=0;fontColor=#000000;" parent="1" source="X1wTtv5NDjoywUPzEH5h-9" target="X1wTtv5NDjoywUPzEH5h-21" edge="1">
          <mxGeometry width="160" relative="1" as="geometry">
            <mxPoint x="770" y="320" as="sourcePoint" />
            <mxPoint x="900" y="240" as="targetPoint" />
          </mxGeometry>
        </mxCell>
        <mxCell id="X1wTtv5NDjoywUPzEH5h-50" value="" style="endArrow=block;html=1;endFill=0;elbow=vertical;rounded=0;exitX=1;exitY=0.5;exitDx=0;exitDy=0;exitPerimeter=0;entryX=0;entryY=0.5;entryDx=0;entryDy=0;entryPerimeter=0;fontColor=#000000;" parent="1" source="X1wTtv5NDjoywUPzEH5h-9" target="X1wTtv5NDjoywUPzEH5h-22" edge="1">
          <mxGeometry width="160" relative="1" as="geometry">
            <mxPoint x="700" y="400" as="sourcePoint" />
            <mxPoint x="830" y="320" as="targetPoint" />
          </mxGeometry>
        </mxCell>
        <mxCell id="X1wTtv5NDjoywUPzEH5h-51" value="" style="endArrow=block;html=1;endFill=0;elbow=vertical;rounded=0;exitX=1;exitY=0.5;exitDx=0;exitDy=0;exitPerimeter=0;entryX=0;entryY=0.5;entryDx=0;entryDy=0;entryPerimeter=0;fontColor=#000000;" parent="1" source="X1wTtv5NDjoywUPzEH5h-9" target="X1wTtv5NDjoywUPzEH5h-23" edge="1">
          <mxGeometry width="160" relative="1" as="geometry">
            <mxPoint x="870" y="570" as="sourcePoint" />
            <mxPoint x="1000" y="490" as="targetPoint" />
          </mxGeometry>
        </mxCell>
        <mxCell id="X1wTtv5NDjoywUPzEH5h-52" value="&lt;h1 style=&quot;margin-top: 0px;&quot;&gt;Sources&lt;/h1&gt;&lt;p&gt;[1] DARE UK FAB v2.2&lt;/p&gt;&lt;p&gt;&lt;font style=&quot;color: rgb(255, 51, 51);&quot;&gt;[2] &lt;font style=&quot;color: rgb(255, 51, 51);&quot;&gt;Crick LATTICE v2&lt;/font&gt;&lt;/font&gt;&lt;/p&gt;&lt;p&gt;&lt;font&gt;&lt;font style=&quot;color: rgb(0, 0, 255);&quot;&gt;[3] satre-high-level-design&lt;/font&gt;&lt;/font&gt;&lt;/p&gt;" style="text;html=1;whiteSpace=wrap;overflow=hidden;rounded=0;" parent="1" vertex="1">
          <mxGeometry x="580" y="40" width="180" height="170" as="geometry" />
        </mxCell>
        <mxCell id="X1wTtv5NDjoywUPzEH5h-53" value="&lt;font style=&quot;color: rgb(0, 0, 255);&quot;&gt;Info Asset Owner&lt;/font&gt;" style="html=1;outlineConnect=0;whiteSpace=wrap;fillColor=#ffff99;shape=mxgraph.archimate3.role;" parent="1" vertex="1">
          <mxGeometry x="160" y="690" width="70" height="35" as="geometry" />
        </mxCell>
        <mxCell id="X1wTtv5NDjoywUPzEH5h-54" value="" style="endArrow=block;html=1;endFill=1;startArrow=oval;startFill=1;elbow=vertical;rounded=0;entryX=0;entryY=0.5;entryDx=0;entryDy=0;entryPerimeter=0;exitX=1;exitY=0.45;exitDx=0;exitDy=0;exitPerimeter=0;" parent="1" source="X1wTtv5NDjoywUPzEH5h-13" target="X1wTtv5NDjoywUPzEH5h-53" edge="1">
          <mxGeometry width="160" relative="1" as="geometry">
            <mxPoint x="220" y="730" as="sourcePoint" />
            <mxPoint x="423" y="732" as="targetPoint" />
          </mxGeometry>
        </mxCell>
        <mxCell id="X1wTtv5NDjoywUPzEH5h-55" value="&lt;font style=&quot;color: rgb(0, 0, 255);&quot;&gt;Data Steward&lt;/font&gt;" style="html=1;outlineConnect=0;whiteSpace=wrap;fillColor=#ffff99;shape=mxgraph.archimate3.role;fontColor=#000000;" parent="1" vertex="1">
          <mxGeometry x="460" y="570" width="70" height="35" as="geometry" />
        </mxCell>
        <mxCell id="X1wTtv5NDjoywUPzEH5h-56" value="" style="endArrow=block;html=1;endFill=1;startArrow=oval;startFill=1;elbow=vertical;rounded=0;entryX=0;entryY=0.5;entryDx=0;entryDy=0;entryPerimeter=0;exitX=1;exitY=0.45;exitDx=0;exitDy=0;exitPerimeter=0;" parent="1" source="X1wTtv5NDjoywUPzEH5h-7" target="X1wTtv5NDjoywUPzEH5h-55" edge="1">
          <mxGeometry width="160" relative="1" as="geometry">
            <mxPoint x="120" y="640" as="sourcePoint" />
            <mxPoint x="323" y="745" as="targetPoint" />
          </mxGeometry>
        </mxCell>
        <mxCell id="X1wTtv5NDjoywUPzEH5h-57" value="" style="endArrow=block;html=1;endFill=1;startArrow=oval;startFill=1;elbow=vertical;rounded=0;entryX=0;entryY=0.5;entryDx=0;entryDy=0;entryPerimeter=0;exitX=1;exitY=0.45;exitDx=0;exitDy=0;exitPerimeter=0;" parent="1" source="X1wTtv5NDjoywUPzEH5h-17" target="X1wTtv5NDjoywUPzEH5h-9" edge="1">
          <mxGeometry width="160" relative="1" as="geometry">
            <mxPoint x="160" y="380" as="sourcePoint" />
            <mxPoint x="363" y="382" as="targetPoint" />
          </mxGeometry>
        </mxCell>
        <mxCell id="X1wTtv5NDjoywUPzEH5h-58" value="" style="endArrow=block;html=1;endFill=0;elbow=vertical;rounded=0;exitX=0.5;exitY=1;exitDx=0;exitDy=0;exitPerimeter=0;entryX=0.5;entryY=0;entryDx=0;entryDy=0;entryPerimeter=0;fontColor=#000000;jumpStyle=gap;" parent="1" source="X1wTtv5NDjoywUPzEH5h-4" target="X1wTtv5NDjoywUPzEH5h-9" edge="1">
          <mxGeometry width="160" relative="1" as="geometry">
            <mxPoint x="320" y="300" as="sourcePoint" />
            <mxPoint x="450" y="400" as="targetPoint" />
          </mxGeometry>
        </mxCell>
        <mxCell id="X1wTtv5NDjoywUPzEH5h-59" value="" style="endArrow=block;html=1;endFill=0;elbow=vertical;rounded=0;exitX=0.5;exitY=1;exitDx=0;exitDy=0;exitPerimeter=0;fontColor=#000000;jumpStyle=gap;" parent="1" source="X1wTtv5NDjoywUPzEH5h-4" target="X1wTtv5NDjoywUPzEH5h-8" edge="1">
          <mxGeometry width="160" relative="1" as="geometry">
            <mxPoint x="360" y="310" as="sourcePoint" />
            <mxPoint x="460" y="475" as="targetPoint" />
          </mxGeometry>
        </mxCell>
        <mxCell id="X1wTtv5NDjoywUPzEH5h-60" value="" style="endArrow=block;html=1;endFill=0;elbow=vertical;rounded=0;exitX=0.5;exitY=1;exitDx=0;exitDy=0;exitPerimeter=0;entryX=0.2;entryY=0;entryDx=0;entryDy=0;entryPerimeter=0;fontColor=#000000;jumpStyle=gap;" parent="1" source="X1wTtv5NDjoywUPzEH5h-4" target="X1wTtv5NDjoywUPzEH5h-12" edge="1">
          <mxGeometry width="160" relative="1" as="geometry">
            <mxPoint x="450" y="310" as="sourcePoint" />
            <mxPoint x="550" y="475" as="targetPoint" />
          </mxGeometry>
        </mxCell>
      </root>
    </mxGraphModel>
  </diagram>
</mxfile>
